<svg id="bar-chart" xmlns="http://www.w3.org/2000/svg" width="86.75" height="90.129" viewBox="0 0 86.75 90.129">
  <g id="Grupo_1459" data-name="Grupo 1459" transform="translate(0 34.612)">
    <g id="Grupo_1458" data-name="Grupo 1458">
      <path id="Caminho_1320" data-name="Caminho 1320" d="M95.833,199.132h-3.8V150.739a4.4,4.4,0,0,0-4.656-4.085H78.888a4.4,4.4,0,0,0-4.656,4.085v48.393H64.587V172.665a4.4,4.4,0,0,0-4.656-4.085H51.44a4.4,4.4,0,0,0-4.656,4.085v26.467H37.139V185.425a4.4,4.4,0,0,0-4.656-4.085H23.992a4.4,4.4,0,0,0-4.656,4.085v13.707h-4a1.533,1.533,0,1,0,0,3.039h80.5a1.533,1.533,0,1,0,0-3.039Zm-62.159,0H22.8V185.425a1.127,1.127,0,0,1,1.192-1.046h8.491a1.127,1.127,0,0,1,1.192,1.046Zm27.448,0H50.248V172.665a1.127,1.127,0,0,1,1.192-1.046h8.491a1.127,1.127,0,0,1,1.192,1.046Zm27.448,0H77.7V150.739a1.127,1.127,0,0,1,1.192-1.046h8.491a1.127,1.127,0,0,1,1.192,1.046Z" transform="translate(-13.601 -146.654)" fill="#787878"/>
    </g>
  </g>
  <g id="Grupo_1461" data-name="Grupo 1461" transform="translate(0.104)">
    <g id="Grupo_1460" data-name="Grupo 1460">
      <path id="Caminho_1321" data-name="Caminho 1321" d="M185.986,2.482A2.352,2.352,0,0,0,183.51.006C183.472,0,183.434,0,183.4,0H169.117a2.36,2.36,0,1,0,0,4.72h8.817L154.6,28.052l-8.8-8.8a2.36,2.36,0,0,0-3.338,0L100.037,61.682a2.36,2.36,0,0,0,3.338,3.337L144.134,24.26l8.8,8.8a2.36,2.36,0,0,0,3.338,0l25-25v7.98a2.36,2.36,0,1,0,4.72,0V2.6C185.992,2.558,185.988,2.52,185.986,2.482Z" transform="translate(-99.346)" fill="#787878"/>
    </g>
  </g>
  <g id="Grupo_1463" data-name="Grupo 1463" transform="translate(12.282 50.917)">
    <g id="Grupo_1462" data-name="Grupo 1462">
      <circle id="Elipse_172" data-name="Elipse 172" cx="2.36" cy="2.36" r="2.36" fill="#787878"/>
    </g>
  </g>
</svg>
