<?xml version="1.0" encoding="iso-8859-1"?>
<!-- Generator: Adobe Illustrator 19.0.0, SVG Export Plug-In . SVG Version: 6.00 Build 0)  -->
<svg version="1.1" id="Capa_1" xmlns="http://www.w3.org/2000/svg" xmlns:xlink="http://www.w3.org/1999/xlink" x="0px" y="0px"
	 viewBox="0 0 512 512" style="enable-background:new 0 0 512 512; "  xml:space="preserve">
<path style="fill:#C03A2B;" d="M123.586,512H83.491c-16.861,0-30.526-13.665-30.526-30.526V30.526C52.966,13.665,66.631,0,83.491,0
	h40.095V512z"/>
<path style="fill:#E64C3C; " d="M428.509,512H123.586V0h304.922c16.861,0,30.526,13.665,30.526,30.526v450.94
	C459.034,498.335,445.369,512,428.509,512z"/>
<polygon style="fill:#F9EAB0;" points="414.897,123.586 370.759,88.276 326.621,123.586 326.621,0 414.897,0 "/>
<rect x="167.724" y="176.552" style="fill:#FFFFFF;" width="247.172" height="158.897"/>
<g>
	<path style="fill:#BDC3C7;" d="M300.138,229.517h-88.276c-4.873,0-8.828-3.955-8.828-8.828c0-4.873,3.955-8.828,8.828-8.828h88.276
		c4.873,0,8.828,3.955,8.828,8.828C308.966,225.562,305.011,229.517,300.138,229.517z"/>
	<path style="fill:#BDC3C7;" d="M370.759,229.517h-35.31c-4.873,0-8.828-3.955-8.828-8.828c0-4.873,3.955-8.828,8.828-8.828h35.31
		c4.873,0,8.828,3.955,8.828,8.828C379.586,225.562,375.631,229.517,370.759,229.517z"/>
	<path style="fill:#BDC3C7;" d="M300.138,300.138h-88.276c-4.873,0-8.828-3.955-8.828-8.828c0-4.873,3.955-8.828,8.828-8.828h88.276
		c4.873,0,8.828,3.955,8.828,8.828C308.966,296.183,305.011,300.138,300.138,300.138z"/>
	<path style="fill:#BDC3C7;" d="M370.759,300.138h-35.31c-4.873,0-8.828-3.955-8.828-8.828c0-4.873,3.955-8.828,8.828-8.828h35.31
		c4.873,0,8.828,3.955,8.828,8.828C379.586,296.183,375.631,300.138,370.759,300.138z"/>
	<path style="fill:#BDC3C7;" d="M370.759,264.828H291.31c-4.873,0-8.828-3.955-8.828-8.828s3.955-8.828,8.828-8.828h79.448
		c4.873,0,8.828,3.955,8.828,8.828S375.631,264.828,370.759,264.828z"/>
	<path style="fill:#BDC3C7;" d="M256,264.828h-44.138c-4.873,0-8.828-3.955-8.828-8.828s3.955-8.828,8.828-8.828H256
		c4.873,0,8.828,3.955,8.828,8.828S260.873,264.828,256,264.828z"/>
</g>
<path style="fill:#AA2A20;" d="M88.276,485.517c-4.873,0-8.828-3.955-8.828-8.828V35.31c0-4.873,3.955-8.828,8.828-8.828
	c4.873,0,8.828,3.955,8.828,8.828V476.69C97.103,481.562,93.149,485.517,88.276,485.517z"/>
<g>
</g>
<g>
</g>
<g>
</g>
<g>
</g>
<g>
</g>
<g>
</g>
<g>
</g>
<g>
</g>
<g>
</g>
<g>
</g>
<g>
</g>
<g>
</g>
<g>
</g>
<g>
</g>
<g>
</g>
</svg>
