<svg id="cloud-computing" xmlns="http://www.w3.org/2000/svg" width="22.353" height="19" viewBox="0 0 22.353 19">
  <path id="Caminho_308" data-name="Caminho 308" d="M18.991,9.628C18.794,6.778,16.03,4.5,12.7,4.5A7.011,7.011,0,0,0,7.5,6.719c-.028-.012-.057-.021-.086-.032-.074-.03-.149-.059-.225-.085l-.128-.04c-.076-.022-.152-.042-.231-.06-.043-.01-.085-.02-.129-.028-.084-.016-.17-.029-.256-.04-.038,0-.075-.011-.113-.015-.124-.012-.249-.019-.376-.019A3.136,3.136,0,0,0,2.608,9.25c0,.041,0,.081.006.121A4.332,4.332,0,0,0,0,13.1c0,2.243,2.147,4.068,4.785,4.068h1.92a.321.321,0,1,0,0-.633H4.785c-2.228,0-4.04-1.541-4.04-3.435a3.762,3.762,0,0,1,2.4-3.247l.211-.086v-.2c0-.038,0-.077.006-.116l0-.059,0-.061c0-.027,0-.054,0-.081A2.439,2.439,0,0,1,5.961,7.033a3.058,3.058,0,0,1,.342.021l.087.011a2.928,2.928,0,0,1,.294.056l.039.009a2.827,2.827,0,0,1,.311.1l.078.032a2.781,2.781,0,0,1,.262.125,2.159,2.159,0,0,1,1.2,1.86.377.377,0,0,0,.745,0A2.7,2.7,0,0,0,8.122,7.074,6.311,6.311,0,0,1,12.7,5.133c2.885,0,5.282,1.943,5.532,4.4a8.363,8.363,0,0,0-1.521.039.328.328,0,0,0-.312.361.359.359,0,0,0,.368.269.419.419,0,0,0,.056,0,8.041,8.041,0,0,1,1.745,0,3.428,3.428,0,0,1,3.042,3.162,3.494,3.494,0,0,1-3.736,3.176h-1.48a.321.321,0,1,0,0,.633h1.48c2.471,0,4.481-1.709,4.481-3.809A4.061,4.061,0,0,0,18.991,9.628Z" transform="translate(0 -4.5)" fill="#fff"/>
  <path id="Caminho_309" data-name="Caminho 309" d="M31.381,39.305l-3.623,3.623V31.076a.576.576,0,1,0-1.152,0V42.928l-3.623-3.623a.576.576,0,1,0-.814.814l4.605,4.605a.577.577,0,0,0,.815,0l4.605-4.605a.576.576,0,0,0-.814-.814Z" transform="translate(-15.72 -25.894)" fill="#fff"/>
</svg>
