<svg id="note" xmlns="http://www.w3.org/2000/svg" width="51.907" height="54.573" viewBox="0 0 51.907 54.573">
  <path id="Caminho_1211" data-name="Caminho 1211" d="M23.514,54.572H36.936A1.066,1.066,0,0,0,38,53.506V4.145a1.066,1.066,0,0,0-.366-.8L34.1.262a1.066,1.066,0,0,0-1.4,0L29.862,2.732,27.025.262a1.066,1.066,0,0,0-1.4,0L22.788,2.732,19.951.262a1.065,1.065,0,0,0-1.4,0l-2.837,2.47L12.877.262a1.066,1.066,0,0,0-1.4,0L8.64,2.732,5.8.262a1.066,1.066,0,0,0-1.4,0L.866,3.341a1.066,1.066,0,0,0-.366.8V53.506a1.066,1.066,0,0,0,1.066,1.066H14.987a1.066,1.066,0,1,0,0-2.132H2.632V4.63L5.1,2.479,7.94,4.949a1.066,1.066,0,0,0,1.4,0l2.837-2.47,2.837,2.47a1.066,1.066,0,0,0,1.4,0l2.837-2.47,2.837,2.47a1.066,1.066,0,0,0,1.4,0l2.837-2.47,2.837,2.47a1.066,1.066,0,0,0,1.4,0L33.4,2.479,35.87,4.63V52.44H23.514a1.066,1.066,0,1,0,0,2.132Zm0,0" transform="translate(-0.5 0)" fill="#ff3636" fill-rule="evenodd"/>
  <path id="Caminho_1212" data-name="Caminho 1212" d="M43.921,78.523a6.663,6.663,0,1,0,6.663,6.663A6.671,6.671,0,0,0,43.921,78.523Zm0,11.194a4.531,4.531,0,1,1,4.531-4.531A4.536,4.536,0,0,1,43.921,89.717Zm0,0" transform="translate(-33.34 -70.154)" fill="#ff3636" fill-rule="evenodd"/>
  <path id="Caminho_1213" data-name="Caminho 1213" d="M189.4,78.523a6.663,6.663,0,1,0,6.663,6.663A6.671,6.671,0,0,0,189.4,78.523Zm0,11.194a4.531,4.531,0,1,1,4.531-4.531A4.536,4.536,0,0,1,189.4,89.717Zm0,0" transform="translate(-163.311 -70.154)" fill="#ff3636" fill-rule="evenodd"/>
  <path id="Caminho_1214" data-name="Caminho 1214" d="M221,131.035h-4.148a1.066,1.066,0,0,0,0,2.132H221a1.066,1.066,0,1,0,0-2.132Zm0,0" transform="translate(-192.842 -117.068)" fill="#ff3636" fill-rule="evenodd"/>
  <path id="Caminho_1215" data-name="Caminho 1215" d="M75.527,113.652H74.519v-1.008a1.066,1.066,0,1,0-2.132,0v1.008H71.379a1.066,1.066,0,1,0,0,2.132h1.008v1.008a1.066,1.066,0,0,0,2.132,0v-1.008h1.008a1.066,1.066,0,1,0,0-2.132Zm0,0" transform="translate(-62.872 -99.685)" fill="#ff3636" fill-rule="evenodd"/>
  <path id="Caminho_1216" data-name="Caminho 1216" d="M49.517,234.113H38.323a1.066,1.066,0,1,0,0,2.132H49.517a1.066,1.066,0,1,0,0-2.132Zm0,0" transform="translate(-33.339 -209.16)" fill="#ff3636" fill-rule="evenodd"/>
  <path id="Caminho_1217" data-name="Caminho 1217" d="M194.995,234.113H183.8a1.066,1.066,0,1,0,0,2.132h11.194a1.066,1.066,0,1,0,0-2.132Zm0,0" transform="translate(-163.311 -209.16)" fill="#ff3636" fill-rule="evenodd"/>
  <path id="Caminho_1218" data-name="Caminho 1218" d="M49.517,274.566H38.323a1.066,1.066,0,1,0,0,2.132H49.517a1.066,1.066,0,0,0,0-2.132Zm0,0" transform="translate(-33.339 -245.301)" fill="#ff3636" fill-rule="evenodd"/>
  <path id="Caminho_1219" data-name="Caminho 1219" d="M194.995,274.566H183.8a1.066,1.066,0,1,0,0,2.132h11.194a1.066,1.066,0,1,0,0-2.132Zm0,0" transform="translate(-163.311 -245.301)" fill="#ff3636" fill-rule="evenodd"/>
  <path id="Caminho_1220" data-name="Caminho 1220" d="M49.517,315.023H38.323a1.066,1.066,0,0,0,0,2.132H49.517a1.066,1.066,0,0,0,0-2.132Zm0,0" transform="translate(-33.339 -281.446)" fill="#ff3636" fill-rule="evenodd"/>
  <path id="Caminho_1221" data-name="Caminho 1221" d="M194.995,317.155a1.066,1.066,0,0,0,0-2.132H183.8a1.066,1.066,0,0,0,0,2.132Zm0,0" transform="translate(-163.311 -281.446)" fill="#ff3636" fill-rule="evenodd"/>
  <path id="Caminho_1222" data-name="Caminho 1222" d="M49.517,355.48H38.323a1.066,1.066,0,1,0,0,2.132H49.517a1.066,1.066,0,0,0,0-2.132Zm0,0" transform="translate(-33.339 -317.591)" fill="#ff3636" fill-rule="evenodd"/>
  <path id="Caminho_1223" data-name="Caminho 1223" d="M49.517,395.934H38.323a1.066,1.066,0,1,0,0,2.132H49.517a1.066,1.066,0,1,0,0-2.132Zm0,0" transform="translate(-33.339 -353.733)" fill="#ff3636" fill-rule="evenodd"/>
  <path id="Caminho_1224" data-name="Caminho 1224" d="M49.517,436.391H38.323a1.066,1.066,0,1,0,0,2.132H49.517a1.066,1.066,0,0,0,0-2.132Zm0,0" transform="translate(-33.339 -389.877)" fill="#ff3636" fill-rule="evenodd"/>
  <path id="Caminho_1225" data-name="Caminho 1225" d="M388.837,46.411a.936.936,0,0,0,.019.1l.008.031a1.031,1.031,0,0,0,.038.114l0,.007a1.032,1.032,0,0,0,.058.117l0,.008,4.193,7.255a1.066,1.066,0,0,0,1.846,0l4.193-7.255,0-.008a1.022,1.022,0,0,0,.058-.117l0-.007a1.082,1.082,0,0,0,.038-.114c0-.01.005-.021.008-.031.008-.032.014-.064.019-.1,0-.011,0-.022.005-.033a1.038,1.038,0,0,0,.008-.126h0V3.4A3.4,3.4,0,0,0,395.953,0h-3.742A3.4,3.4,0,0,0,388.824,3.4V46.252h0a1.05,1.05,0,0,0,.008.126c0,.011,0,.022.005.033Zm5.245,4.965-2.346-4.059h4.691ZM390.956,3.4a1.261,1.261,0,0,1,1.256-1.263h3.742A1.261,1.261,0,0,1,397.209,3.4V6.181h-6.253Zm0,4.918h2.061V22.486a1.066,1.066,0,1,0,2.132,0V8.313h2.061V45.186h-2.061V31.013a1.066,1.066,0,1,0-2.132,0V45.186h-2.061Zm0,0" transform="translate(-347.434 0)" fill="#ff3636" fill-rule="evenodd"/>
  <path id="Caminho_1226" data-name="Caminho 1226" d="M167.488,492a1.066,1.066,0,1,0,1.066,1.066A1.068,1.068,0,0,0,167.488,492Zm0,0" transform="translate(-148.737 -439.559)" fill="#ff3636" fill-rule="evenodd"/>
  <path id="Caminho_1227" data-name="Caminho 1227" d="M429.226,243.093a1.066,1.066,0,1,0-1.066-1.066A1.068,1.068,0,0,0,429.226,243.093Zm0,0" transform="translate(-382.577 -215.278)" fill="#ff3636" fill-rule="evenodd"/>
</svg>
