<svg id="csv" xmlns="http://www.w3.org/2000/svg" width="80.229" height="90.591" viewBox="0 0 74.333 95.808">
  <path id="Caminho_1340" data-name="Caminho 1340" d="M79.925,20.131l-1.274-1.274L61.976,2.182,60.7.909A3.124,3.124,0,0,0,58.509,0H10.569C8.609,0,6.5,1.513,6.5,4.833V92.5c0,1.383,1.391,2.731,3.036,3.155.083.021.162.053.248.069a4.026,4.026,0,0,0,.785.079h66.2a4.026,4.026,0,0,0,.785-.079c.086-.017.165-.048.248-.069,1.645-.425,3.036-1.772,3.036-3.155V23.09A3.807,3.807,0,0,0,79.925,20.131Zm-4.98-.309H61.011V5.889ZM10.569,92.5a.952.952,0,0,1-.327-.081.757.757,0,0,1-.438-.684V67.726H77.53V91.739a.758.758,0,0,1-.438.684.952.952,0,0,1-.327.081ZM9.8,64.422V4.833c0-.358.055-1.53.765-1.53H57.8a2.543,2.543,0,0,0-.1.646V23.126H76.884a2.531,2.531,0,0,0,.644-.1c0,.025,0,.035,0,.059V64.422Z" transform="translate(-6.5 0)" fill="#787878"/>
  <path id="Caminho_1341" data-name="Caminho 1341" d="M19.633,47.384a3.408,3.408,0,0,1,1.355-1.072A4.07,4.07,0,0,1,22.58,46a3.633,3.633,0,0,1,1.434.294,3.442,3.442,0,0,1,1.254.948l1.875-1.672a6.161,6.161,0,0,0-2.1-1.355,6.958,6.958,0,0,0-2.529-.451,6.715,6.715,0,0,0-2.732.553,6.244,6.244,0,0,0-2.2,1.616,7.585,7.585,0,0,0-1.468,2.653,13.158,13.158,0,0,0,0,7.4,7.527,7.527,0,0,0,1.468,2.664,6.145,6.145,0,0,0,2.19,1.6,6.835,6.835,0,0,0,2.744.542,6.993,6.993,0,0,0,2.529-.451,6.17,6.17,0,0,0,2.1-1.355l-1.875-1.649a3.561,3.561,0,0,1-1.3.948,3.973,3.973,0,0,1-1.525.294,3.536,3.536,0,0,1-1.548-.35,3.608,3.608,0,0,1-1.31-1.107,5.678,5.678,0,0,1-.9-1.954,11.671,11.671,0,0,1-.35-2.891,11.441,11.441,0,0,1,.362-2.935A5.575,5.575,0,0,1,19.633,47.384Z" transform="translate(-0.581 28.526)" fill="#787878"/>
  <path id="Caminho_1342" data-name="Caminho 1342" d="M32.628,52.522a8.918,8.918,0,0,0-1.683-.96q-.9-.394-1.672-.813a5.033,5.033,0,0,1-1.287-.971,2.043,2.043,0,0,1-.519-1.457,1.812,1.812,0,0,1,.18-.757,2.441,2.441,0,0,1,.5-.712,2.941,2.941,0,0,1,.724-.53,2.3,2.3,0,0,1,.859-.259,8.264,8.264,0,0,1,1.333-.023,3.481,3.481,0,0,1,.836.159,2.3,2.3,0,0,1,.486.226,2.588,2.588,0,0,0,.306.18,2.087,2.087,0,0,0,.135-.226c.074-.135.165-.306.271-.509s.218-.421.339-.654.226-.448.316-.644a4.628,4.628,0,0,0-1.716-.621,11.873,11.873,0,0,0-2.1-.192A5.852,5.852,0,0,0,28,44.075a4.847,4.847,0,0,0-1.6.915,4.377,4.377,0,0,0-1.1,1.457,4.542,4.542,0,0,0-.406,1.964,3.7,3.7,0,0,0,.519,2.032,5.392,5.392,0,0,0,1.31,1.411,10.335,10.335,0,0,0,1.693,1.039q.9.441,1.683.88a5.589,5.589,0,0,1,1.3.983,1.829,1.829,0,0,1,.519,1.31,2.4,2.4,0,0,1-.733,1.908,3.106,3.106,0,0,1-2.111.644,5.763,5.763,0,0,1-.971-.091,9.8,9.8,0,0,1-1.039-.238c-.347-.1-.682-.2-1-.316a4.762,4.762,0,0,1-.8-.35l-.474,1.943a3.558,3.558,0,0,0,.915.576,6.048,6.048,0,0,0,1.118.373,8.839,8.839,0,0,0,1.163.192c.383.036.757.056,1.118.056a6.23,6.23,0,0,0,2.258-.383,5.024,5.024,0,0,0,1.672-1.027,4.6,4.6,0,0,0,1.051-1.49,4.283,4.283,0,0,0,.373-1.751,4.119,4.119,0,0,0-.519-2.179A4.986,4.986,0,0,0,32.628,52.522Z" transform="translate(5.418 28.524)" fill="#787878"/>
  <path id="Caminho_1343" data-name="Caminho 1343" d="M38.86,58.287,35,43.924H31.9l5.172,16.735H40.6l5.42-16.735H42.948Z" transform="translate(10.06 28.632)" fill="#787878"/>
  <path id="Caminho_1344" data-name="Caminho 1344" d="M32.322,13H12.5V49.341H67.011V19.607H32.322ZM15.8,22.911H29.019v3.3H15.8Zm0,6.607H29.019v3.3H15.8Zm0,6.607H29.019v3.3H15.8Zm13.215,9.911H15.8v-3.3H29.019Zm34.689,0H32.322v-3.3H63.707Zm0-6.607H32.322v-3.3H63.707Zm0-6.607H32.322v-3.3H63.707Zm0-9.911v3.3H32.322v-3.3Zm-47.9-3.3V16.3H29.019v3.3Z" transform="translate(-2.589 8.474)" fill="#787878"/>
</svg>
