<svg id="transaction" xmlns="http://www.w3.org/2000/svg" width="52.606" height="52.606" viewBox="0 0 52.606 52.606">
  <path id="Caminho_1242" data-name="Caminho 1242" d="M48,57h1.7v1.7H48Z" transform="translate(-8.121 -9.485)" fill="#62bc00"/>
  <path id="Caminho_1243" data-name="Caminho 1243" d="M48,53h1.7v1.7H48Z" transform="translate(-8.121 -8.879)" fill="#62bc00"/>
  <path id="Caminho_1244" data-name="Caminho 1244" d="M48,49h1.7v1.7H48Z" transform="translate(-8.121 -8.273)" fill="#62bc00"/>
  <path id="Caminho_1245" data-name="Caminho 1245" d="M14,5h1.7V6.7H14Z" transform="translate(-2.97 -1.606)" fill="#62bc00"/>
  <path id="Caminho_1246" data-name="Caminho 1246" d="M14,9h1.7v1.7H14Z" transform="translate(-2.97 -2.212)" fill="#62bc00"/>
  <path id="Caminho_1247" data-name="Caminho 1247" d="M14,13h1.7v1.7H14Z" transform="translate(-2.97 -2.818)" fill="#62bc00"/>
  <path id="Caminho_1248" data-name="Caminho 1248" d="M29.727,17A12.727,12.727,0,1,0,42.455,29.727,12.742,12.742,0,0,0,29.727,17Zm0,23.758a11.03,11.03,0,1,1,11.03-11.03A11.043,11.043,0,0,1,29.727,40.758Z" transform="translate(-3.424 -3.424)" fill="#62bc00"/>
  <path id="Caminho_1249" data-name="Caminho 1249" d="M31.394,26.394a1.7,1.7,0,0,1,1.7,1.7h1.7a3.391,3.391,0,0,0-2.545-3.273V23h-1.7v1.7H28v3.394a3.4,3.4,0,0,0,3.394,3.394,1.7,1.7,0,0,1,1.7,1.7v1.7h-1.7a1.7,1.7,0,0,1-1.7-1.7H28a3.391,3.391,0,0,0,2.545,3.273v1.817h1.7v-1.7h2.545V33.182a3.4,3.4,0,0,0-3.394-3.394,1.7,1.7,0,0,1-1.7-1.7v-1.7Z" transform="translate(-5.091 -4.333)" fill="#62bc00"/>
  <path id="Caminho_1250" data-name="Caminho 1250" d="M39,31h1.7v1.7H39Z" transform="translate(-6.758 -5.545)" fill="#62bc00"/>
  <path id="Caminho_1251" data-name="Caminho 1251" d="M23,31h1.7v1.7H23Z" transform="translate(-4.333 -5.545)" fill="#62bc00"/>
  <path id="Caminho_1252" data-name="Caminho 1252" d="M51.909,27.3a3.359,3.359,0,0,0-1.7.472v-7.26a2.537,2.537,0,0,0-3.492-2.359,2.539,2.539,0,0,0-4.992.662v1.329a16.056,16.056,0,0,0-23.946-5.823l-.66-.879V1H3.545V11.748l-1.7,2.263A4.268,4.268,0,0,0,1,16.556V27.3H2.7a3.359,3.359,0,0,0,1.7-.472v7.26A2.537,2.537,0,0,0,7.886,36.45a2.539,2.539,0,0,0,4.992-.662V34.459a16.056,16.056,0,0,0,23.946,5.823l.66.879V53.606H51.061V42.858l1.7-2.263a4.268,4.268,0,0,0,.848-2.545V27.3ZM11.182,35.788a.848.848,0,1,1-1.7,0V27.3h-1.7v6.788a.848.848,0,0,1-1.7,0V21.04l.831-.415a5.936,5.936,0,0,0,3.106-3.872l.281-1.123-1.646-.412-.282,1.122a4.239,4.239,0,0,1-2.219,2.766l-1.768.884v3.918a1.7,1.7,0,0,1-1.7,1.7V16.555a2.559,2.559,0,0,1,.509-1.527l2.036-2.715V2.7H15.424V14.01L16.468,15.4a16.064,16.064,0,0,0-5.286,11.9Zm1.7-8.485A14.424,14.424,0,1,1,27.3,41.727,14.44,14.44,0,0,1,12.879,27.3Zm39.03,10.748a2.561,2.561,0,0,1-.509,1.527l-2.036,2.715v9.616H39.182V40.6l-1.044-1.391a16.064,16.064,0,0,0,5.286-11.9V18.818a.848.848,0,1,1,1.7,0V27.3h1.7V20.515a.848.848,0,0,1,1.7,0V33.567l-.831.415a5.936,5.936,0,0,0-3.106,3.872L44.3,38.976l1.646.412.281-1.123A4.239,4.239,0,0,1,48.443,35.5l1.769-.883V30.7a1.7,1.7,0,0,1,1.7-1.7Z" transform="translate(-1 -1)" fill="#62bc00"/>
  <path id="Caminho_1253" data-name="Caminho 1253" d="M47.841,11.528c-.483-.389-.986-.759-1.5-1.1L45.4,11.832c.471.317.936.66,1.381,1.018Z" transform="translate(-7.727 -2.428)" fill="#62bc00"/>
  <path id="Caminho_1254" data-name="Caminho 1254" d="M24.545,10.091a2.541,2.541,0,0,0,2.515-2.24,20.626,20.626,0,0,1,13.2,2.189l.815-1.488A22.327,22.327,0,0,0,26.694,6.193a2.543,2.543,0,1,0-2.148,3.9Zm0-3.394a.848.848,0,1,1-.848.848A.85.85,0,0,1,24.545,6.7Z" transform="translate(-4.182 -1.606)" fill="#62bc00"/>
  <path id="Caminho_1255" data-name="Caminho 1255" d="M15.722,52.039c.483.389.986.759,1.5,1.1l.949-1.407c-.471-.317-.936-.66-1.381-1.018Z" transform="translate(-3.231 -8.533)" fill="#62bc00"/>
  <path id="Caminho_1256" data-name="Caminho 1256" d="M36.048,53a2.541,2.541,0,0,0-2.515,2.24,20.625,20.625,0,0,1-13.2-2.188l-.815,1.488a22.036,22.036,0,0,0,14.388,2.37A2.543,2.543,0,1,0,36.048,53Zm0,3.394a.848.848,0,1,1,.848-.848A.85.85,0,0,1,36.048,56.394Z" transform="translate(-3.806 -8.879)" fill="#62bc00"/>
</svg>
