<svg height="55" viewBox="0 0 64 64" width="55" xmlns="http://www.w3.org/2000/svg"><g id="doc-file"><path d="m61 7v54h-40v-4h36v-42l-8-8z" fill="#78b9eb"/><path d="m3 22h50v20h-50z" fill="#78b9eb"/><g fill="#006df0"><path d="m61 6h-11.586l-3.707-3.707a1 1 0 0 0 -.707-.293h-28a1 1 0 0 0 -1 1v18h-13a1 1 0 0 0 -1 1v20a1 1 0 0 0 1 1h13v14a1 1 0 0 0 1 1h3v3a1 1 0 0 0 1 1h40a1 1 0 0 0 1-1v-54a1 1 0 0 0 -1-1zm-15-.586 8.586 8.586h-7.586a1 1 0 0 1 -1-1zm-42 17.586h48v18h-48zm14 20h35a1 1 0 0 0 1-1v-20a1 1 0 0 0 -1-1h-35v-17h26v9a3 3 0 0 0 3 3h9v40h-38zm42 17h-38v-2h35a1 1 0 0 0 1-1v-42a1 1 0 0 0 -.293-.707l-6.293-6.293h8.586z"/><path d="m18 25h-6a1 1 0 0 0 -1 1v12a1 1 0 0 0 1 1h6a3 3 0 0 0 3-3v-8a3 3 0 0 0 -3-3zm1 11a1 1 0 0 1 -1 1h-5v-10h5a1 1 0 0 1 1 1z"/><path d="m35 28v8a3 3 0 0 0 3 3h7v-2h-7a1 1 0 0 1 -1-1v-8a1 1 0 0 1 1-1h7v-2h-7a3 3 0 0 0 -3 3z"/><path d="m32 25h-8a1 1 0 0 0 -1 1v12a1 1 0 0 0 1 1h8a1 1 0 0 0 1-1v-12a1 1 0 0 0 -1-1zm-1 12h-6v-10h6z"/></g></g></svg>