<svg id="enterprise" xmlns="http://www.w3.org/2000/svg" width="97" height="97" viewBox="0 0 97 97">
  <g id="Grupo_1092" data-name="Grupo 1092" transform="translate(34.366 32.344)">
    <g id="Grupo_1091" data-name="Grupo 1091">
      <rect id="Retângulo_882" data-name="Retângulo 882" width="3" height="3" fill="#707070"/>
    </g>
  </g>
  <g id="Grupo_1094" data-name="Grupo 1094" transform="translate(34.366 38.413)">
    <g id="Grupo_1093" data-name="Grupo 1093">
      <rect id="Retângulo_883" data-name="Retângulo 883" width="3" height="4" fill="#707070"/>
    </g>
  </g>
  <g id="Grupo_1096" data-name="Grupo 1096" transform="translate(34.366 45.484)">
    <g id="Grupo_1095" data-name="Grupo 1095">
      <rect id="Retângulo_884" data-name="Retângulo 884" width="3" height="3" fill="#707070"/>
    </g>
  </g>
  <g id="Grupo_1098" data-name="Grupo 1098" transform="translate(34.366 51.548)">
    <g id="Grupo_1097" data-name="Grupo 1097">
      <rect id="Retângulo_885" data-name="Retângulo 885" width="3" height="3" fill="#707070"/>
    </g>
  </g>
  <g id="Grupo_1100" data-name="Grupo 1100" transform="translate(40.43 32.344)">
    <g id="Grupo_1099" data-name="Grupo 1099">
      <rect id="Retângulo_886" data-name="Retângulo 886" width="3" height="3" fill="#707070"/>
    </g>
  </g>
  <g id="Grupo_1102" data-name="Grupo 1102" transform="translate(40.43 38.413)">
    <g id="Grupo_1101" data-name="Grupo 1101">
      <rect id="Retângulo_887" data-name="Retângulo 887" width="3" height="4" fill="#707070"/>
    </g>
  </g>
  <g id="Grupo_1104" data-name="Grupo 1104" transform="translate(40.43 45.484)">
    <g id="Grupo_1103" data-name="Grupo 1103">
      <rect id="Retângulo_888" data-name="Retângulo 888" width="3" height="3" fill="#707070"/>
    </g>
  </g>
  <g id="Grupo_1106" data-name="Grupo 1106" transform="translate(40.43 51.548)">
    <g id="Grupo_1105" data-name="Grupo 1105">
      <rect id="Retângulo_889" data-name="Retângulo 889" width="3" height="3" fill="#707070"/>
    </g>
  </g>
  <g id="Grupo_1108" data-name="Grupo 1108" transform="translate(46.5 32.344)">
    <g id="Grupo_1107" data-name="Grupo 1107">
      <rect id="Retângulo_890" data-name="Retângulo 890" width="4" height="3" fill="#707070"/>
    </g>
  </g>
  <g id="Grupo_1110" data-name="Grupo 1110" transform="translate(46.5 38.413)">
    <g id="Grupo_1109" data-name="Grupo 1109">
      <rect id="Retângulo_891" data-name="Retângulo 891" width="4" height="4" fill="#707070"/>
    </g>
  </g>
  <g id="Grupo_1112" data-name="Grupo 1112" transform="translate(46.5 45.484)">
    <g id="Grupo_1111" data-name="Grupo 1111">
      <rect id="Retângulo_892" data-name="Retângulo 892" width="4" height="3" fill="#707070"/>
    </g>
  </g>
  <g id="Grupo_1114" data-name="Grupo 1114" transform="translate(46.5 51.548)">
    <g id="Grupo_1113" data-name="Grupo 1113">
      <rect id="Retângulo_893" data-name="Retângulo 893" width="4" height="3" fill="#707070"/>
    </g>
  </g>
  <g id="Grupo_1116" data-name="Grupo 1116" transform="translate(53.57 32.344)">
    <g id="Grupo_1115" data-name="Grupo 1115">
      <rect id="Retângulo_894" data-name="Retângulo 894" width="3" height="3" fill="#707070"/>
    </g>
  </g>
  <g id="Grupo_1118" data-name="Grupo 1118" transform="translate(40.43 26.28)">
    <g id="Grupo_1117" data-name="Grupo 1117">
      <rect id="Retângulo_895" data-name="Retângulo 895" width="3" height="3" fill="#707070"/>
    </g>
  </g>
  <g id="Grupo_1120" data-name="Grupo 1120" transform="translate(46.5 26.28)">
    <g id="Grupo_1119" data-name="Grupo 1119">
      <rect id="Retângulo_896" data-name="Retângulo 896" width="4" height="3" fill="#707070"/>
    </g>
  </g>
  <g id="Grupo_1122" data-name="Grupo 1122" transform="translate(53.57 26.28)">
    <g id="Grupo_1121" data-name="Grupo 1121">
      <rect id="Retângulo_897" data-name="Retângulo 897" width="3" height="3" fill="#707070"/>
    </g>
  </g>
  <g id="Grupo_1124" data-name="Grupo 1124" transform="translate(53.57 38.413)">
    <g id="Grupo_1123" data-name="Grupo 1123">
      <rect id="Retângulo_898" data-name="Retângulo 898" width="3" height="4" fill="#707070"/>
    </g>
  </g>
  <g id="Grupo_1126" data-name="Grupo 1126" transform="translate(53.57 45.484)">
    <g id="Grupo_1125" data-name="Grupo 1125">
      <rect id="Retângulo_899" data-name="Retângulo 899" width="3" height="3" fill="#707070"/>
    </g>
  </g>
  <g id="Grupo_1128" data-name="Grupo 1128" transform="translate(53.57 51.548)">
    <g id="Grupo_1127" data-name="Grupo 1127">
      <rect id="Retângulo_900" data-name="Retângulo 900" width="3" height="3" fill="#707070"/>
    </g>
  </g>
  <g id="Grupo_1130" data-name="Grupo 1130" transform="translate(59.634 32.344)">
    <g id="Grupo_1129" data-name="Grupo 1129">
      <rect id="Retângulo_901" data-name="Retângulo 901" width="3" height="3" fill="#707070"/>
    </g>
  </g>
  <g id="Grupo_1132" data-name="Grupo 1132" transform="translate(59.634 38.413)">
    <g id="Grupo_1131" data-name="Grupo 1131">
      <rect id="Retângulo_902" data-name="Retângulo 902" width="3" height="4" fill="#707070"/>
    </g>
  </g>
  <g id="Grupo_1134" data-name="Grupo 1134" transform="translate(59.634 45.484)">
    <g id="Grupo_1133" data-name="Grupo 1133">
      <rect id="Retângulo_903" data-name="Retângulo 903" width="3" height="3" fill="#707070"/>
    </g>
  </g>
  <g id="Grupo_1136" data-name="Grupo 1136" transform="translate(59.634 51.548)">
    <g id="Grupo_1135" data-name="Grupo 1135">
      <rect id="Retângulo_904" data-name="Retângulo 904" width="3" height="3" fill="#707070"/>
    </g>
  </g>
  <g id="Grupo_1138" data-name="Grupo 1138" transform="translate(0 0)">
    <g id="Grupo_1137" data-name="Grupo 1137" transform="translate(0 0)">
      <path id="Caminho_881" data-name="Caminho 881" d="M95.385,24.25H71.133V1.617A1.616,1.616,0,0,0,69.518,0H27.483a1.616,1.616,0,0,0-1.617,1.615V24.25H1.617A1.616,1.616,0,0,0,0,25.865v58.2a1.616,1.616,0,0,0,1.615,1.617H5A9.7,9.7,0,0,0,4.85,87.3v8.083A1.616,1.616,0,0,0,6.465,97H90.533a1.616,1.616,0,0,0,1.617-1.615V87.3A9.66,9.66,0,0,0,92,85.683h3.379A1.616,1.616,0,0,0,97,84.068v-58.2A1.616,1.616,0,0,0,95.385,24.25ZM69.517,69.517a3.233,3.233,0,1,1-3.233-3.233A3.233,3.233,0,0,1,69.517,69.517Zm-38.8-3.233a3.233,3.233,0,1,1-3.233,3.233A3.233,3.233,0,0,1,30.717,66.283Zm-9.7,27.483H8.083V87.3a6.467,6.467,0,1,1,12.933,0Zm-9.7-19.4A3.233,3.233,0,1,1,14.55,77.6,3.233,3.233,0,0,1,11.317,74.367Zm9.945,5.946a9.745,9.745,0,0,0-2.034-1.505,6.467,6.467,0,1,0-9.356,0,9.763,9.763,0,0,0-3.71,3.642H3.233V27.483H25.867v37.8a6.379,6.379,0,0,0,.172,8.673A9.727,9.727,0,0,0,21.262,80.313ZM37.183,93.767H24.25V82.45a6.467,6.467,0,0,1,12.933,0Zm19.4,0H40.417V82.45a8.083,8.083,0,1,1,16.167,0ZM43.65,66.283a4.85,4.85,0,1,1,4.85,4.85A4.85,4.85,0,0,1,43.65,66.283Zm14.7,10.608a11.387,11.387,0,0,0-4.638-4.478,8.084,8.084,0,1,0-10.415,0,11.387,11.387,0,0,0-4.638,4.478,9.765,9.765,0,0,0-3.26-2.934A6.42,6.42,0,0,0,29.1,63.28V3.233H67.9V63.28a6.438,6.438,0,0,0-6.294,10.678A9.765,9.765,0,0,0,58.346,76.892ZM72.75,87.3v6.467H59.817V82.45a6.467,6.467,0,0,1,12.933,0Zm16.167,6.467H75.983V87.3a6.467,6.467,0,1,1,12.933,0Zm-9.7-19.4A3.233,3.233,0,1,1,82.45,77.6,3.233,3.233,0,0,1,79.217,74.367Zm14.55,8.083H90.838a9.763,9.763,0,0,0-3.71-3.642,6.467,6.467,0,1,0-9.356,0,9.739,9.739,0,0,0-2.034,1.505,9.727,9.727,0,0,0-4.777-6.355,6.379,6.379,0,0,0,.172-8.673v-37.8H93.767V82.45Z" transform="translate(0 0)" fill="#707070"/>
    </g>
  </g>
  <g id="Grupo_1140" data-name="Grupo 1140" transform="translate(75.806 37.521)">
    <g id="Grupo_1139" data-name="Grupo 1139">
      <rect id="Retângulo_905" data-name="Retângulo 905" width="3" height="25" fill="#707070"/>
    </g>
  </g>
  <g id="Grupo_1142" data-name="Grupo 1142" transform="translate(86 37.521)">
    <g id="Grupo_1141" data-name="Grupo 1141">
      <rect id="Retângulo_906" data-name="Retângulo 906" width="3" height="25" fill="#707070"/>
    </g>
  </g>
  <g id="Grupo_1144" data-name="Grupo 1144" transform="translate(8 37.521)">
    <g id="Grupo_1143" data-name="Grupo 1143">
      <rect id="Retângulo_907" data-name="Retângulo 907" width="3" height="25" fill="#707070"/>
    </g>
  </g>
  <g id="Grupo_1146" data-name="Grupo 1146" transform="translate(18.194 37.521)">
    <g id="Grupo_1145" data-name="Grupo 1145">
      <rect id="Retângulo_908" data-name="Retângulo 908" width="3" height="25" fill="#707070"/>
    </g>
  </g>
  <g id="Grupo_1148" data-name="Grupo 1148" transform="translate(37.3 6.4)">
    <g id="Grupo_1147" data-name="Grupo 1147">
      <path id="Caminho_882" data-name="Caminho 882" d="M204.8,32H185.6a1.6,1.6,0,0,0-1.6,1.6V46.4a1.6,1.6,0,0,0,1.6,1.6h19.2a1.6,1.6,0,0,0,1.6-1.6V33.6A1.6,1.6,0,0,0,204.8,32Zm-1.6,12.8h-16V35.2h16Z" transform="translate(-184 -32)" fill="#707070"/>
    </g>
  </g>
</svg>
