<?xml version="1.0" encoding="iso-8859-1"?>
<!-- Generator: Adobe Illustrator 19.0.0, SVG Export Plug-In . SVG Version: 6.00 Build 0)  -->
<svg version="1.1" id="Capa_1" xmlns="http://www.w3.org/2000/svg" xmlns:xlink="http://www.w3.org/1999/xlink" x="0px" y="0px"
	 viewBox="0 0 368 368" style="enable-background:new 0 0 368 368;" xml:space="preserve">
<polygon style="fill:#CCE4FF;" points="200,200 200,232 104,232 104,136 200,136 200,168 200,184 "/>
<g>
	<path style="fill:#007AFF;" d="M208,232v-19.056l52.424,26.208C261.552,239.72,262.776,240,264,240c1.464,0,2.92-0.4,4.2-1.192
		c2.36-1.464,3.8-4.032,3.8-6.808v-96c0-2.776-1.44-5.344-3.8-6.808c-2.368-1.464-5.304-1.592-7.784-0.352L208,155.056V136
		c0-4.416-3.576-8-8-8h-96c-4.424,0-8,3.584-8,8v96c0,4.416,3.576,8,8,8h96C204.424,240,208,236.416,208,232z M256,148.944v70.112
		l-48-24v-22.112L256,148.944z M192,224h-80v-80h80v24v32V224z"/>
	<path style="fill:#007AFF;" d="M308,120c6.616,0,12-5.384,12-12s-5.384-12-12-12s-12,5.384-12,12S301.384,120,308,120z"/>
	<path style="fill:#007AFF;" d="M343.992,0H24C10.768,0,0,10.768,0,24v320c0,13.232,10.768,24,24,24h319.992
		C357.224,368,368,357.232,368,344V24C368,10.768,357.224,0,343.992,0z M343.992,352H24c-4.416,0-8-3.592-8-8v-24h72
		c4.424,0,8-3.584,8-8s-3.576-8-8-8H16V64h200c4.424,0,8-3.584,8-8s-3.576-8-8-8H16V24c0-4.408,3.584-8,8-8h319.992
		c4.416,0,8.008,3.592,8.008,8v24h-72c-4.424,0-8,3.584-8,8s3.576,8,8,8h72v240H152c-4.424,0-8,3.584-8,8s3.576,8,8,8h200v24
		C352,348.408,348.408,352,343.992,352z"/>
</g>
<g>
</g>
<g>
</g>
<g>
</g>
<g>
</g>
<g>
</g>
<g>
</g>
<g>
</g>
<g>
</g>
<g>
</g>
<g>
</g>
<g>
</g>
<g>
</g>
<g>
</g>
<g>
</g>
<g>
</g>
</svg>
