<svg id="pdf" xmlns="http://www.w3.org/2000/svg" width="80.229" height="90.591" viewBox="0 0 74.333 92.917">
  <path id="Caminho_1325" data-name="Caminho 1325" d="M119.3,16.454A1.549,1.549,0,0,0,118.2,16H74.84A10.853,10.853,0,0,0,64,26.84V98.076a10.853,10.853,0,0,0,10.84,10.84h52.653a10.853,10.853,0,0,0,10.84-10.84V36.132a1.549,1.549,0,0,0-.454-1.1Zm.454,4.834,13.3,13.3h-5.553a7.752,7.752,0,0,1-7.743-7.743ZM74.84,19.1h41.812V26.84a10.853,10.853,0,0,0,10.84,10.84h7.743V81.042H67.1V26.84A7.752,7.752,0,0,1,74.84,19.1Zm52.653,86.722H74.84A7.752,7.752,0,0,1,67.1,98.076V84.139h68.139V98.076a7.752,7.752,0,0,1-7.743,7.743Z" transform="translate(-64 -16)" fill="#787878"/>
  <path id="Caminho_1326" data-name="Caminho 1326" d="M303.722,384h-6.177A1.544,1.544,0,0,0,296,385.544V397.9a1.544,1.544,0,0,0,3.089,0v-4.633h1.544a1.544,1.544,0,1,0,0-3.089h-1.544v-3.089h4.633a1.544,1.544,0,0,0,0-3.089Z" transform="translate(-251.073 -312.704)" fill="#787878"/>
  <path id="Caminho_1327" data-name="Caminho 1327" d="M172.633,384h-3.089A1.544,1.544,0,0,0,168,385.544V397.9a1.544,1.544,0,0,0,3.089,0v-4.633h1.544a4.633,4.633,0,1,0,0-9.266Zm0,6.177h-1.544v-3.089h1.544a1.544,1.544,0,1,1,0,3.089Z" transform="translate(-147.86 -312.704)" fill="#787878"/>
  <path id="Caminho_1328" data-name="Caminho 1328" d="M233.544,384A1.544,1.544,0,0,0,232,385.544V397.9a1.544,1.544,0,0,0,1.544,1.544,7.722,7.722,0,1,0,0-15.443Zm1.544,12.09v-8.737a4.633,4.633,0,0,1,0,8.737Z" transform="translate(-199.466 -312.704)" fill="#787878"/>
  <path id="Caminho_1329" data-name="Caminho 1329" d="M241.544,163.089h24.71a1.544,1.544,0,0,0,0-3.089h-24.71a1.544,1.544,0,1,0,0,3.089Z" transform="translate(-205.874 -132.122)" fill="#787878"/>
  <path id="Caminho_1330" data-name="Caminho 1330" d="M241.544,195.089h6.177a1.544,1.544,0,1,0,0-3.089h-6.177a1.544,1.544,0,1,0,0,3.089Z" transform="translate(-205.917 -157.927)" fill="#787878"/>
  <path id="Caminho_1331" data-name="Caminho 1331" d="M241.544,227.089h24.71a1.544,1.544,0,0,0,0-3.089h-24.71a1.544,1.544,0,1,0,0,3.089Z" transform="translate(-205.874 -183.732)" fill="#787878"/>
  <path id="Caminho_1332" data-name="Caminho 1332" d="M129.544,259.089h35.52a1.544,1.544,0,1,0,0-3.089h-35.52a1.544,1.544,0,1,0,0,3.089Z" transform="translate(-115.574 -209.537)" fill="#787878"/>
  <path id="Caminho_1333" data-name="Caminho 1333" d="M317.9,192H305.544a1.544,1.544,0,1,0,0,3.089H317.9a1.544,1.544,0,1,0,0-3.089Z" transform="translate(-257.508 -157.927)" fill="#787878"/>
  <path id="Caminho_1334" data-name="Caminho 1334" d="M350.177,256h-4.633a1.544,1.544,0,0,0,0,3.089h4.633a1.544,1.544,0,0,0,0-3.089Z" transform="translate(-289.781 -209.537)" fill="#787878"/>
  <path id="Caminho_1335" data-name="Caminho 1335" d="M129.544,291.089h9.266a1.544,1.544,0,1,0,0-3.089h-9.266a1.544,1.544,0,1,0,0,3.089Z" transform="translate(-115.604 -235.342)" fill="#787878"/>
  <path id="Caminho_1336" data-name="Caminho 1336" d="M224.988,288H209.544a1.544,1.544,0,0,0,0,3.089h15.444a1.544,1.544,0,1,0,0-3.089Z" transform="translate(-180.099 -235.342)" fill="#787878"/>
  <path id="Caminho_1337" data-name="Caminho 1337" d="M330.81,288h-9.266a1.544,1.544,0,1,0,0,3.089h9.266a1.544,1.544,0,1,0,0-3.089Z" transform="translate(-270.417 -235.342)" fill="#787878"/>
  <path id="Caminho_1338" data-name="Caminho 1338" d="M129.544,149.621h15.443a1.544,1.544,0,0,0,1.544-1.544V129.544A1.544,1.544,0,0,0,144.988,128H129.544A1.544,1.544,0,0,0,128,129.544v18.532A1.544,1.544,0,0,0,129.544,149.621Zm1.544-18.532h12.355v15.443H131.089Z" transform="translate(-115.6 -106.301)" fill="#787878"/>
  <path id="Caminho_1339" data-name="Caminho 1339" d="M241.544,131.089H253.9a1.544,1.544,0,1,0,0-3.089H241.544a1.544,1.544,0,1,0,0,3.089Z" transform="translate(-205.906 -106.317)" fill="#787878"/>
</svg>
