<svg xmlns="http://www.w3.org/2000/svg" width="25.898" height="23.732" viewBox="0 0 25.898 23.732">
  <g id="front-business" transform="translate(-2.398 -20.898)">
    <path id="Caminho_1414" data-name="Caminho 1414" d="M24.768,22.853h.111a1,1,0,0,0,.793-.364,1.087,1.087,0,0,0,.2-.914l-.53-2.545A1.4,1.4,0,0,0,24.054,17.9H1.845A1.4,1.4,0,0,0,.556,19.03l-.53,2.544a1.088,1.088,0,0,0,.2.914,1,1,0,0,0,.793.364h.111q-.422,2.27-.844,4.54l-.023.121a3.042,3.042,0,0,0,1.66,3.35v9.195A1.575,1.575,0,0,0,3.5,41.631H22.4a1.575,1.575,0,0,0,1.573-1.573V30.866a3.037,3.037,0,0,0,1.661-3.35ZM8.36,27.609q.177-2.378.355-4.756h3.039q-.032,2.362-.064,4.723a1.7,1.7,0,0,1-1.755,1.58,1.677,1.677,0,0,1-1.214-.516A1.335,1.335,0,0,1,8.36,27.609ZM3.894,29.156H3.852a1.5,1.5,0,0,1-1.138-.507,1.2,1.2,0,0,1-.265-1.008l.784-4.788H6.294l-.479,4.689A1.917,1.917,0,0,1,3.894,29.156ZM12,35.239a.6.6,0,0,1-.6.6h-5.2a.6.6,0,0,1-.6-.6V33.484a.6.6,0,0,1,.6-.6h5.2a.6.6,0,0,1,.6.6Zm2.242-7.661-.066-4.724h3.039q.175,2.334.351,4.667l.007.09a1.335,1.335,0,0,1-.362,1.03,1.678,1.678,0,0,1-1.217.516A1.7,1.7,0,0,1,14.238,27.577Zm6.077,11.092a.605.605,0,0,1-.6.6H16.474a.605.605,0,0,1-.6-.6v-4.6a.6.6,0,0,1,.6-.6H19.71a.6.6,0,0,1,.6.6Zm2.87-10.018a1.488,1.488,0,0,1-1.132.5h-.011a1.921,1.921,0,0,1-1.927-1.61q-.241-2.346-.482-4.692h3.034l.785,4.791A1.2,1.2,0,0,1,23.185,28.652Z" transform="translate(2.398 3)" fill="#005aab"/>
  </g>
</svg>
