<svg id="scale-symbol-of-justice" xmlns="http://www.w3.org/2000/svg" width="64.376" height="54.192" viewBox="0 0 64.376 54.192">
  <path id="Caminho_1210" data-name="Caminho 1210" d="M64.311,50.7a1.038,1.038,0,0,0,.047-.255c0-.021.018-.041.018-.065a.777.777,0,0,0-.021-.087,1.076,1.076,0,0,0-.046-.241,1.482,1.482,0,0,0-.059-.158.41.41,0,0,0-.032-.075L51.645,29.046c-.023-.037-.063-.048-.087-.081a1.053,1.053,0,0,0-.291-.263c-.014-.008-.026-.021-.042-.029a1.083,1.083,0,0,0-.532-.154H33.282v-2.86a5.057,5.057,0,1,0-2.187,0v2.86H13.679a1.08,1.08,0,0,0-.528.154c-.016.008-.031.023-.046.033a1.075,1.075,0,0,0-.282.257c-.026.033-.068.045-.091.083L.158,49.816a1.1,1.1,0,0,0,.195,1.371c.242.22,6.025,5.482,13.312,5.482,6.478,0,11.757-4.151,13.024-5.227a1.078,1.078,0,0,0,.924-1.059,1.091,1.091,0,0,0-.709-1.017l-11.3-18.661H31.1V58.928H27.4a1.094,1.094,0,0,0,0,2.188H31.1V63.3H23.852a1.094,1.094,0,0,0,0,2.188H31.1v2.188H20.025a1.094,1.094,0,0,0,0,2.188H44.35a1.094,1.094,0,0,0,0-2.188H33.282V65.487h7.243a1.094,1.094,0,0,0,0-2.188H33.282V61.117h3.144a1.094,1.094,0,1,0,0-2.188H33.282V30.705H48.774L37.205,49.819a.373.373,0,0,0-.034.079,1.094,1.094,0,0,0-.059.155,18.883,18.883,0,0,1-.065.33.546.546,0,0,0,.014.065,1.118,1.118,0,0,0,.049.255c.016.045.026.093.042.136a.992.992,0,0,0,.146.214.748.748,0,0,0,.085.111c.006,0,.008.012.014.021.241.22,6.024,5.482,13.313,5.482s13.068-5.263,13.309-5.482a.12.12,0,0,1,.016-.021c.035-.034.053-.075.085-.111a1.07,1.07,0,0,0,.144-.214A.563.563,0,0,0,64.311,50.7ZM32.191,17.857a2.874,2.874,0,0,1,2.65,1.777h-5.3A2.869,2.869,0,0,1,32.191,17.857Zm-2.65,3.963h5.3a2.865,2.865,0,0,1-5.3,0Zm-15.871,9.9L24.3,49.287H3.037ZM4.423,51.473h18.5a17.83,17.83,0,0,1-9.257,3.007A17.861,17.861,0,0,1,4.423,51.473Zm56.924-2.186H40.08L50.715,31.72ZM41.463,51.473h18.5a17.812,17.812,0,0,1-9.253,3.007A17.867,17.867,0,0,1,41.463,51.473Z" transform="translate(0 -15.671)" fill="#005aab"/>
</svg>
