<svg xmlns="http://www.w3.org/2000/svg" width="20.279" height="15.025" viewBox="0 0 20.279 15.025">
  <g id="tick" transform="translate(0 -66.32)">
    <path id="Caminho_1294" data-name="Caminho 1294" d="M19.917,66.683a1.236,1.236,0,0,0-1.749,0L6.491,78.36,2.111,73.979A1.237,1.237,0,1,0,.362,75.728l5.255,5.255a1.236,1.236,0,0,0,1.749,0L19.917,68.432A1.238,1.238,0,0,0,19.917,66.683Z" fill="#fff"/>
    <path id="Caminho_1295" data-name="Caminho 1295" d="M253.783,66.683a1.236,1.236,0,0,0-1.749,0l-8.524,8.524v3.5l10.272-10.272A1.238,1.238,0,0,0,253.783,66.683Z" transform="translate(-233.866)" fill="#fff"/>
  </g>
</svg>
