<svg id="withdraw" xmlns="http://www.w3.org/2000/svg" width="55.151" height="55.151" viewBox="0 0 55.151 55.151">
  <path id="Caminho_1228" data-name="Caminho 1228" d="M0,0V29.3H55.152V0ZM51.92,6.185a4.87,4.87,0,0,1-2.954-2.954H51.92Zm-6.3,19.882H9.532a8.1,8.1,0,0,0-6.3-6.3V9.532a8.1,8.1,0,0,0,6.3-6.3H45.619a8.1,8.1,0,0,0,6.3,6.3V19.767a8.1,8.1,0,0,0-6.3,6.3ZM6.185,3.232A4.87,4.87,0,0,1,3.232,6.185V3.232ZM3.232,23.114a4.87,4.87,0,0,1,2.954,2.954H3.232Zm45.735,2.954a4.87,4.87,0,0,1,2.954-2.954v2.954Zm0,0" fill="#62bc00"/>
  <path id="Caminho_1229" data-name="Caminho 1229" d="M121,121h3.232v3.232H121Zm0,0" transform="translate(-107.966 -107.966)" fill="#62bc00"/>
  <path id="Caminho_1230" data-name="Caminho 1230" d="M361,121h3.232v3.232H361Zm0,0" transform="translate(-322.114 -107.966)" fill="#62bc00"/>
  <path id="Caminho_1231" data-name="Caminho 1231" d="M189.079,61a8.079,8.079,0,1,0,8.079,8.079A8.088,8.088,0,0,0,189.079,61Zm0,12.926a4.847,4.847,0,1,1,4.847-4.847A4.853,4.853,0,0,1,189.079,73.926Zm0,0" transform="translate(-161.503 -54.429)" fill="#62bc00"/>
  <path id="Caminho_1232" data-name="Caminho 1232" d="M241,302h3.232v16.158H241Zm0,0" transform="translate(-215.04 -269.469)" fill="#62bc00"/>
  <path id="Caminho_1233" data-name="Caminho 1233" d="M181,362h3.232v12.926H181Zm0,0" transform="translate(-161.503 -323.006)" fill="#62bc00"/>
  <path id="Caminho_1234" data-name="Caminho 1234" d="M241,482h3.232v3.232H241Zm0,0" transform="translate(-215.04 -430.08)" fill="#62bc00"/>
  <path id="Caminho_1235" data-name="Caminho 1235" d="M121,302h3.232v9.695H121Zm0,0" transform="translate(-107.966 -269.469)" fill="#62bc00"/>
  <path id="Caminho_1236" data-name="Caminho 1236" d="M121,422h3.232v3.232H121Zm0,0" transform="translate(-107.966 -376.543)" fill="#62bc00"/>
  <path id="Caminho_1237" data-name="Caminho 1237" d="M361,302h3.232v9.695H361Zm0,0" transform="translate(-322.114 -269.469)" fill="#62bc00"/>
  <path id="Caminho_1238" data-name="Caminho 1238" d="M361,422h3.232v3.232H361Zm0,0" transform="translate(-322.114 -376.543)" fill="#62bc00"/>
  <path id="Caminho_1239" data-name="Caminho 1239" d="M181,302h3.232v3.232H181Zm0,0" transform="translate(-161.503 -269.469)" fill="#62bc00"/>
  <path id="Caminho_1240" data-name="Caminho 1240" d="M301,362h3.232v12.926H301Zm0,0" transform="translate(-268.577 -323.006)" fill="#62bc00"/>
  <path id="Caminho_1241" data-name="Caminho 1241" d="M301,302h3.232v3.232H301Zm0,0" transform="translate(-268.577 -269.469)" fill="#62bc00"/>
</svg>
