<svg xmlns="http://www.w3.org/2000/svg" width="80.229" height="90.591" viewBox="0 0 80.229 90.591">
  <g id="xml-file-format-symbol" transform="translate(-31.504)">
    <path id="Caminho_1409" data-name="Caminho 1409" d="M106.655,32.4H104.48v-10.5a1.538,1.538,0,0,0-.019-.2,1.741,1.741,0,0,0-.421-1.15L86.573.607C86.567.6,86.562.6,86.559.6A1.747,1.747,0,0,0,86.2.3c-.038-.026-.076-.047-.116-.069a1.863,1.863,0,0,0-.35-.147c-.033-.009-.062-.022-.1-.031A1.8,1.8,0,0,0,85.235,0H42.309a3.556,3.556,0,0,0-3.553,3.553V32.4H36.582A5.077,5.077,0,0,0,31.5,37.481v26.4a5.079,5.079,0,0,0,5.078,5.078h2.175V87.039a3.556,3.556,0,0,0,3.553,3.553h58.618a3.557,3.557,0,0,0,3.553-3.553V68.963h2.175a5.079,5.079,0,0,0,5.077-5.077v-26.4A5.078,5.078,0,0,0,106.655,32.4ZM42.309,3.553h41.15V21.729a1.777,1.777,0,0,0,1.776,1.776h15.692v8.9H42.309ZM87.1,61.6H81.827l-.355-9.131c-.106-2.867-.213-6.335-.213-9.8h-.1c-.742,3.045-1.735,6.442-2.654,9.237L75.6,61.21H71.385l-2.548-9.236c-.777-2.8-1.591-6.194-2.158-9.309h-.071c-.14,3.221-.248,6.9-.425,9.875l-.424,9.06H60.768l1.523-23.854h7.184l2.337,7.964c.743,2.759,1.487,5.731,2.016,8.527h.108c.671-2.758,1.486-5.908,2.265-8.563l2.548-7.927h7.043Zm-49.266,0,6.9-12.07L38.083,37.745h6.193L46.363,42.1c.71,1.452,1.239,2.62,1.808,3.962h.069c.565-1.52,1.025-2.581,1.627-3.962l2.019-4.353h6.157L51.317,49.389,58.4,61.6H52.169l-2.16-4.319c-.884-1.662-1.45-2.9-2.123-4.283h-.071c-.495,1.382-1.1,2.62-1.84,4.283L43.993,61.6H37.834Zm63.093,24.477H42.309V68.963h58.618V86.077ZM106.145,61.6h-14.9V37.745h5.417V57.07h9.487V61.6Z" transform="translate(0)" fill="#787878"/>
  </g>
</svg>
